<svg width="21" height="13" viewBox="0 0 21 13" fill="none" xmlns="http://www.w3.org/2000/svg">
<path d="M2.57812 1.20312C3.38021 0.401042 4.35417 0 5.5 0C6.64583 0 7.61979 0.401042 8.42188 1.20312C9.22396 2.00521 9.625 2.97917 9.625 4.125C9.625 5.52865 9.05208 6.64583 7.90625 7.47656C8.96615 7.99219 9.76823 8.73698 10.3125 9.71094C10.8568 8.73698 11.6589 7.99219 12.7188 7.47656C11.5729 6.64583 11 5.52865 11 4.125C11 2.97917 11.401 2.00521 12.2031 1.20312C13.0052 0.401042 13.9792 0 15.125 0C16.2708 0 17.2448 0.401042 18.0469 1.20312C18.849 2.00521 19.25 2.97917 19.25 4.125C19.25 5.52865 18.6771 6.64583 17.5312 7.47656C18.4766 7.9349 19.2214 8.60807 19.7656 9.49609C20.3385 10.3555 20.625 11.3151 20.625 12.375H19.25C19.25 11.2292 18.849 10.2552 18.0469 9.45312C17.2448 8.65104 16.2708 8.25 15.125 8.25C13.9792 8.25 13.0052 8.65104 12.2031 9.45312C11.401 10.2552 11 11.2292 11 12.375H9.625C9.625 11.2292 9.22396 10.2552 8.42188 9.45312C7.61979 8.65104 6.64583 8.25 5.5 8.25C4.35417 8.25 3.38021 8.65104 2.57812 9.45312C1.77604 10.2552 1.375 11.2292 1.375 12.375H0C0 11.3151 0.272135 10.3555 0.816406 9.49609C1.38932 8.60807 2.14844 7.9349 3.09375 7.47656C1.94792 6.64583 1.375 5.52865 1.375 4.125C1.375 2.97917 1.77604 2.00521 2.57812 1.20312ZM7.43359 2.19141C6.91797 1.64714 6.27344 1.375 5.5 1.375C4.72656 1.375 4.06771 1.64714 3.52344 2.19141C3.00781 2.70703 2.75 3.35156 2.75 4.125C2.75 4.89844 3.00781 5.55729 3.52344 6.10156C4.06771 6.61719 4.72656 6.875 5.5 6.875C6.27344 6.875 6.91797 6.61719 7.43359 6.10156C7.97786 5.55729 8.25 4.89844 8.25 4.125C8.25 3.35156 7.97786 2.70703 7.43359 2.19141ZM17.0586 2.19141C16.543 1.64714 15.8984 1.375 15.125 1.375C14.3516 1.375 13.6927 1.64714 13.1484 2.19141C12.6328 2.70703 12.375 3.35156 12.375 4.125C12.375 4.89844 12.6328 5.55729 13.1484 6.10156C13.6927 6.61719 14.3516 6.875 15.125 6.875C15.8984 6.875 16.543 6.61719 17.0586 6.10156C17.6029 5.55729 17.875 4.89844 17.875 4.125C17.875 3.35156 17.6029 2.70703 17.0586 2.19141Z" fill="#202224"/>
</svg>
