<svg width="20" height="17" viewBox="0 0 20 17" fill="none" xmlns="http://www.w3.org/2000/svg">
<path d="M5.15625 0C6.81771 0 8.30729 0.673177 9.625 2.01953C10.9427 0.673177 12.4323 0 14.0938 0C15.526 0 16.7435 0.515625 17.7461 1.54688C18.7487 2.54948 19.25 3.7526 19.25 5.15625C19.25 5.72917 19.1068 6.31641 18.8203 6.91797C18.5339 7.49089 18.2474 7.92057 17.9609 8.20703L17.5312 8.59375L10.1406 16.0703L9.625 16.5859L9.10938 16.0703L1.71875 8.59375C1.43229 8.33594 1.14583 8.00651 0.859375 7.60547C0.286458 6.74609 0 5.92969 0 5.15625C0 3.7526 0.501302 2.54948 1.50391 1.54688C2.50651 0.515625 3.72396 0 5.15625 0ZM5.15625 1.375C4.125 1.375 3.23698 1.7474 2.49219 2.49219C1.7474 3.23698 1.375 4.125 1.375 5.15625C1.375 5.64323 1.57552 6.20182 1.97656 6.83203L2.66406 7.64844L9.625 14.6094L16.5859 7.64844C17.4453 6.70312 17.875 5.8724 17.875 5.15625C17.875 4.125 17.5026 3.23698 16.7578 2.49219C16.013 1.7474 15.125 1.375 14.0938 1.375C13.4922 1.375 12.862 1.54688 12.2031 1.89062C11.5443 2.20573 11.0286 2.53516 10.6562 2.87891L10.1406 3.35156L9.625 3.95312L9.10938 3.35156C8.96615 3.20833 8.76562 3.03646 8.50781 2.83594C8.27865 2.60677 7.80599 2.30599 7.08984 1.93359C6.40234 1.5612 5.75781 1.375 5.15625 1.375Z" fill="#202224"/>
</svg>
