<svg width="17" height="16" viewBox="0 0 17 16" fill="none" xmlns="http://www.w3.org/2000/svg">
<path d="M4.125 0L5.15625 1.03125L2.40625 3.78125L1.89062 4.21094L1.375 3.78125L0 2.40625L1.03125 1.375L1.89062 2.27734L4.125 0ZM7.39062 1.20312H16.3281V2.57812H7.39062V1.20312ZM4.125 5.5L5.15625 6.53125L2.40625 9.28125L1.89062 9.71094L1.375 9.28125L0 7.90625L1.03125 6.875L1.89062 7.77734L4.125 5.5ZM7.39062 6.70312H16.3281V8.07812H7.39062V6.70312ZM4.125 11L5.15625 12.0312L2.40625 14.7812L1.89062 15.2109L1.375 14.7812L0 13.4062L1.03125 12.375L1.89062 13.2773L4.125 11ZM7.39062 12.2031H16.3281V13.5781H7.39062V12.2031Z" fill="#202224"/>
</svg>
