<svg width="17" height="16" viewBox="0 0 17 16" fill="none" xmlns="http://www.w3.org/2000/svg">
<path d="M5.5 0C6.41667 0 7.27604 0.558594 8.07812 1.67578C8.07812 1.70443 8.13542 1.80469 8.25 1.97656C8.36458 1.80469 8.42188 1.70443 8.42188 1.67578C9.22396 0.558594 10.0833 0 11 0C11.5729 0 12.0599 0.200521 12.4609 0.601562C12.862 1.0026 13.0625 1.48958 13.0625 2.0625C13.0625 2.29167 13.0195 2.52083 12.9336 2.75H15.8125H16.5V3.4375V6.1875V6.875H15.8125V15.125V15.8125H15.125H1.375H0.6875V15.125V6.875H0V6.1875V3.4375V2.75H0.6875H3.56641C3.48047 2.52083 3.4375 2.29167 3.4375 2.0625C3.4375 1.48958 3.63802 1.0026 4.03906 0.601562C4.4401 0.200521 4.92708 0 5.5 0ZM5.5 1.375C5.04167 1.375 4.8125 1.60417 4.8125 2.0625C4.8125 2.52083 5.04167 2.75 5.5 2.75H7.08984C7.0612 2.72135 7.03255 2.67839 7.00391 2.62109C6.97526 2.5638 6.94661 2.50651 6.91797 2.44922C6.40234 1.73307 5.92969 1.375 5.5 1.375ZM11 1.375C10.5703 1.375 10.0977 1.73307 9.58203 2.44922C9.55339 2.50651 9.52474 2.54948 9.49609 2.57812C9.49609 2.57812 9.48177 2.60677 9.45312 2.66406C9.45312 2.69271 9.4388 2.72135 9.41016 2.75H11C11.4583 2.75 11.6875 2.52083 11.6875 2.0625C11.6875 1.60417 11.4583 1.375 11 1.375ZM1.375 4.125V5.5H7.5625V4.8125H8.9375V5.5H15.125V4.125H8.25H7.21875H1.375ZM2.0625 6.875V14.4375H7.5625V7.5625H8.9375V14.4375H14.4375V6.875H2.0625Z" fill="#202224"/>
</svg>
