<svg width="16" height="16" viewBox="0 0 16 16" fill="none" xmlns="http://www.w3.org/2000/svg">
<path d="M0 0H0.6875H14.4375H15.125V0.6875V14.4375V15.125H14.4375H0.6875H0V14.4375V0.6875V0ZM1.375 1.375V4.8125H4.8125V1.375H1.375ZM6.1875 1.375V4.8125H8.9375V1.375H6.1875ZM10.3125 1.375V4.8125H13.75V1.375H10.3125ZM1.375 6.1875V8.9375H4.8125V6.1875H1.375ZM6.1875 6.1875V8.9375H8.9375V6.1875H6.1875ZM10.3125 6.1875V8.9375H13.75V6.1875H10.3125ZM1.375 10.3125V13.75H4.8125V10.3125H1.375ZM6.1875 10.3125V13.75H8.9375V10.3125H6.1875ZM10.3125 10.3125V13.75H13.75V10.3125H10.3125Z" fill="#202224"/>
</svg>
