<svg width="14" height="18" viewBox="0 0 14 18" fill="none" xmlns="http://www.w3.org/2000/svg">
<path d="M5.07031 1.375C5.44271 0.458333 6.04427 0 6.875 0C7.70573 0 8.30729 0.458333 8.67969 1.375H10.3125H11H13.0625H13.75V2.0625V16.5V17.1875H13.0625H0.6875H0V16.5V2.0625V1.375H0.6875H2.75H3.4375H5.07031ZM7.34766 1.58984C7.23307 1.44661 7.07552 1.375 6.875 1.375C6.67448 1.375 6.5026 1.44661 6.35938 1.58984C6.24479 1.70443 6.1875 1.86198 6.1875 2.0625V2.75H5.5H4.125V4.125H9.625V2.75H8.25H7.5625V2.0625C7.5625 1.86198 7.49089 1.70443 7.34766 1.58984ZM1.375 2.75V15.8125H12.375V2.75H11V4.8125V5.5H10.3125H3.4375H2.75V4.8125V2.75H1.375Z" fill="#202224"/>
</svg>
