<svg width="18" height="17" viewBox="0 0 18 17" fill="none" xmlns="http://www.w3.org/2000/svg">
<path d="M12.375 0H13.0625H17.1875H17.875V0.6875V15.8125V16.5H17.1875H13.0625H12.375V15.8125V0.6875V0ZM13.75 1.375V15.125H16.5V1.375H13.75ZM0 4.125H0.6875H4.8125H5.5V4.8125V15.8125V16.5H4.8125H0.6875H0V15.8125V4.8125V4.125ZM1.375 5.5V15.125H4.125V5.5H1.375ZM6.1875 8.25H6.875H11H11.6875V8.9375V15.8125V16.5H11H6.875H6.1875V15.8125V8.9375V8.25ZM7.5625 9.625V15.125H10.3125V9.625H7.5625Z" fill="#202224"/>
</svg>
